<svg xmlns="http://www.w3.org/2000/svg" xmlns:xlink="http://www.w3.org/1999/xlink" width="500" zoomAndPan="magnify" viewBox="0 0 375 374.999991" height="500" preserveAspectRatio="xMidYMid meet" version="1.0"><defs><clipPath id="87a780deed"><path d="M 111.015625 37.5 L 263.828125 37.5 L 263.828125 337.5 L 111.015625 337.5 Z M 111.015625 37.5 " clip-rule="nonzero"/></clipPath></defs><rect x="-37.5" width="450" fill="#ffffff" y="-37.499999" height="449.999989" fill-opacity="1"/><rect x="-37.5" width="450" fill="#ffffff" y="-37.499999" height="449.999989" fill-opacity="1"/><g clip-path="url(#87a780deed)"><path fill="#f2fe67" d="M 238.636719 96.078125 L 226.792969 60.515625 C 220.515625 41.675781 199.390625 32.347656 181.257812 40.410156 C 168.335938 46.160156 160.390625 59.390625 161.382812 73.511719 L 162.964844 96.078125 L 158.34375 101.335938 C 154.714844 105.46875 152.632812 110.730469 152.449219 116.230469 L 150.429688 176.640625 C 150.007812 189.265625 154.507812 200.894531 162.152344 209.6875 L 161.597656 284.613281 C 149.941406 285.855469 139.527344 287.945312 131.40625 290.738281 C 126.46875 292.4375 121.871094 294.566406 118.328125 297.285156 C 114.9375 299.886719 111.035156 304.234375 111.035156 310.40625 C 111.035156 317.664062 116.347656 322.382812 120.414062 324.984375 C 124.890625 327.855469 130.78125 330.105469 137.269531 331.863281 C 150.367188 335.414062 167.964844 337.5 187.050781 337.5 C 206.136719 337.5 223.734375 335.414062 236.832031 331.863281 C 243.316406 330.105469 249.207031 327.855469 253.6875 324.984375 C 257.695312 322.421875 262.910156 317.800781 263.0625 310.71875 C 263.550781 308.875 263.804688 306.953125 263.804688 304.988281 C 263.804688 294.128906 256.023438 284.839844 245.347656 282.933594 L 239.792969 281.941406 C 238.027344 281.625 236.738281 280.085938 236.738281 278.289062 L 236.738281 245.523438 C 246.035156 242.175781 252.679688 233.269531 252.679688 222.8125 L 252.679688 129.304688 C 252.679688 116.734375 247.574219 104.753906 238.636719 96.078125 Z M 164.902344 93.867188 C 164.902344 93.867188 164.902344 93.867188 164.902344 93.863281 Z M 164.902344 93.867188 " fill-opacity="1" fill-rule="evenodd"/></g><path fill="#000000" d="M 184.871094 47.808594 C 198.203125 41.875 213.738281 48.734375 218.347656 62.585938 L 230.917969 100.328125 C 239.078125 107.417969 243.785156 117.714844 243.785156 128.5625 L 243.785156 222.070312 C 243.785156 230.472656 236.976562 237.285156 228.578125 237.285156 C 228.328125 237.285156 228.082031 237.28125 227.835938 237.269531 L 227.835938 277.542969 C 227.835938 283.65625 232.214844 288.894531 238.230469 289.964844 L 243.785156 290.957031 C 250.21875 292.105469 254.90625 297.703125 254.90625 304.246094 C 254.90625 305.84375 254.625 307.390625 254.097656 308.84375 C 254.140625 309.109375 254.164062 309.382812 254.164062 309.65625 C 254.164062 319.703125 224.117188 327.847656 187.050781 327.847656 C 149.984375 327.847656 119.9375 319.703125 119.9375 309.65625 C 119.9375 301.167969 141.40625 294.039062 170.4375 292.035156 L 171.078125 205.4375 C 163.515625 198.054688 158.941406 187.632812 159.324219 176.191406 L 161.34375 115.78125 C 161.460938 112.34375 162.757812 109.050781 165.027344 106.46875 L 171.585938 99 C 171.914062 98.628906 172.078125 98.140625 172.046875 97.644531 L 170.257812 72.144531 C 169.53125 61.757812 175.371094 52.03125 184.871094 47.808594 Z M 194.097656 233.964844 L 194.097656 300.269531 C 192.984375 300.46875 191.742188 300.5625 190.390625 300.550781 C 187.773438 300.523438 185.046875 300.09375 182.652344 299.546875 C 180.820312 299.128906 179.296875 297.320312 179.316406 294.742188 L 179.792969 230.0625 C 182.871094 231.507812 189.863281 233.75 194.097656 233.964844 Z M 213.378906 236.171875 C 213.378906 239.84375 215.691406 242.972656 218.941406 244.179688 L 218.941406 277.542969 C 218.941406 287.976562 226.410156 296.910156 236.675781 298.734375 L 242.226562 299.726562 C 244.414062 300.117188 246.003906 302.019531 246.003906 304.246094 C 246.003906 306.429688 244.519531 308.140625 242.597656 308.457031 C 233.300781 310.007812 217.183594 312.007812 204.730469 310.121094 C 203.90625 309.996094 202.992188 309.175781 202.992188 307.71875 L 202.992188 212.324219 C 202.992188 209.710938 200.878906 207.59375 198.265625 207.59375 C 181.269531 207.59375 167.652344 193.496094 168.21875 176.488281 L 170.238281 116.078125 C 170.28125 114.703125 170.804688 113.382812 171.714844 112.351562 L 178.269531 104.878906 C 180.171875 102.71875 181.121094 99.890625 180.921875 97.019531 L 179.136719 71.519531 C 178.667969 64.871094 182.40625 58.652344 188.484375 55.945312 C 197.015625 52.152344 206.957031 56.539062 209.90625 65.40625 L 222.808594 104.136719 C 223.113281 105.066406 223.6875 105.886719 224.441406 106.511719 C 231.050781 111.921875 234.882812 120.015625 234.882812 128.5625 L 234.882812 222.070312 C 234.882812 225.550781 232.058594 228.378906 228.578125 228.378906 C 225.097656 228.378906 222.273438 225.550781 222.273438 222.070312 L 222.273438 135.589844 L 213.378906 135.589844 Z M 213.378906 236.171875 " fill-opacity="1" fill-rule="evenodd"/><path fill="#f2fe67" d="M 194.03125 233.96875 L 194.03125 300.269531 C 192.925781 300.472656 191.683594 300.566406 190.332031 300.550781 C 187.714844 300.523438 184.988281 300.09375 182.585938 299.546875 C 180.757812 299.128906 179.238281 297.320312 179.257812 294.742188 L 179.734375 230.066406 C 182.8125 231.511719 189.804688 233.75 194.03125 233.96875 Z M 213.316406 236.175781 C 213.316406 239.84375 215.628906 242.972656 218.875 244.179688 L 218.875 277.542969 C 218.875 287.976562 226.351562 296.910156 236.609375 298.738281 L 242.164062 299.726562 C 244.351562 300.117188 245.945312 302.019531 245.945312 304.246094 C 245.945312 306.433594 244.457031 308.140625 242.539062 308.460938 C 233.242188 310.007812 217.117188 312.011719 204.667969 310.121094 C 203.847656 310 202.933594 309.175781 202.933594 307.722656 L 202.933594 212.324219 C 202.933594 209.710938 200.816406 207.597656 198.207031 207.597656 C 181.207031 207.597656 167.585938 193.5 168.160156 176.492188 L 170.175781 116.078125 C 170.222656 114.707031 170.742188 113.386719 171.648438 112.351562 L 178.210938 104.882812 C 180.105469 102.71875 181.058594 99.890625 180.859375 97.027344 L 179.070312 71.519531 C 178.609375 64.878906 182.34375 58.652344 188.421875 55.945312 C 196.953125 52.152344 206.894531 56.542969 209.847656 65.40625 L 222.742188 104.136719 C 223.054688 105.066406 223.621094 105.894531 224.382812 106.511719 C 230.992188 111.921875 234.820312 120.019531 234.820312 128.5625 L 234.820312 222.070312 C 234.820312 225.554688 231.996094 228.378906 228.515625 228.378906 C 225.039062 228.378906 222.210938 225.554688 222.210938 222.070312 L 222.210938 135.59375 L 213.316406 135.59375 Z M 213.316406 236.175781 " fill-opacity="1" fill-rule="evenodd"/></svg>